<svg xmlns="http://www.w3.org/2000/svg" xmlns:xlink="http://www.w3.org/1999/xlink" width="73" height="30" viewBox="0 0 73 30">
  <defs>
    <clipPath id="clip-path">
      <rect width="73" height="30" fill="none"/>
    </clipPath>
  </defs>
  <g id="Repeat_Grid_12" data-name="Repeat Grid 12" clip-path="url(#clip-path)">
    <g transform="translate(-475 -101)">
      <circle id="Ellipse_2" data-name="Ellipse 2" cx="2" cy="2" r="2" transform="translate(478 104)" fill="#787878"/>
    </g>
    <g transform="translate(-467 -101)">
      <circle id="Ellipse_2-2" data-name="Ellipse 2" cx="2" cy="2" r="2" transform="translate(478 104)" fill="#787878"/>
    </g>
    <g transform="translate(-459 -101)">
      <circle id="Ellipse_2-3" data-name="Ellipse 2" cx="2" cy="2" r="2" transform="translate(478 104)" fill="#787878"/>
    </g>
    <g transform="translate(-451 -101)">
      <circle id="Ellipse_2-4" data-name="Ellipse 2" cx="2" cy="2" r="2" transform="translate(478 104)" fill="#787878"/>
    </g>
    <g transform="translate(-443 -101)">
      <circle id="Ellipse_2-5" data-name="Ellipse 2" cx="2" cy="2" r="2" transform="translate(478 104)" fill="#787878"/>
    </g>
    <g transform="translate(-435 -101)">
      <circle id="Ellipse_2-6" data-name="Ellipse 2" cx="2" cy="2" r="2" transform="translate(478 104)" fill="#787878"/>
    </g>
    <g transform="translate(-427 -101)">
      <circle id="Ellipse_2-7" data-name="Ellipse 2" cx="2" cy="2" r="2" transform="translate(478 104)" fill="#787878"/>
    </g>
    <g transform="translate(-419 -101)">
      <circle id="Ellipse_2-8" data-name="Ellipse 2" cx="2" cy="2" r="2" transform="translate(478 104)" fill="#787878"/>
    </g>
    <g transform="translate(-411 -101)">
      <circle id="Ellipse_2-9" data-name="Ellipse 2" cx="2" cy="2" r="2" transform="translate(478 104)" fill="#787878"/>
    </g>
    <g transform="translate(-403 -101)">
      <circle id="Ellipse_2-10" data-name="Ellipse 2" cx="2" cy="2" r="2" transform="translate(478 104)" fill="#787878"/>
    </g>
    <g transform="translate(-475 -94)">
      <circle id="Ellipse_2-11" data-name="Ellipse 2" cx="2" cy="2" r="2" transform="translate(478 104)" fill="#787878"/>
    </g>
    <g transform="translate(-467 -94)">
      <circle id="Ellipse_2-12" data-name="Ellipse 2" cx="2" cy="2" r="2" transform="translate(478 104)" fill="#787878"/>
    </g>
    <g transform="translate(-459 -94)">
      <circle id="Ellipse_2-13" data-name="Ellipse 2" cx="2" cy="2" r="2" transform="translate(478 104)" fill="#787878"/>
    </g>
    <g transform="translate(-451 -94)">
      <circle id="Ellipse_2-14" data-name="Ellipse 2" cx="2" cy="2" r="2" transform="translate(478 104)" fill="#787878"/>
    </g>
    <g transform="translate(-443 -94)">
      <circle id="Ellipse_2-15" data-name="Ellipse 2" cx="2" cy="2" r="2" transform="translate(478 104)" fill="#787878"/>
    </g>
    <g transform="translate(-435 -94)">
      <circle id="Ellipse_2-16" data-name="Ellipse 2" cx="2" cy="2" r="2" transform="translate(478 104)" fill="#787878"/>
    </g>
    <g transform="translate(-427 -94)">
      <circle id="Ellipse_2-17" data-name="Ellipse 2" cx="2" cy="2" r="2" transform="translate(478 104)" fill="#787878"/>
    </g>
    <g transform="translate(-419 -94)">
      <circle id="Ellipse_2-18" data-name="Ellipse 2" cx="2" cy="2" r="2" transform="translate(478 104)" fill="#787878"/>
    </g>
    <g transform="translate(-411 -94)">
      <circle id="Ellipse_2-19" data-name="Ellipse 2" cx="2" cy="2" r="2" transform="translate(478 104)" fill="#787878"/>
    </g>
    <g transform="translate(-403 -94)">
      <circle id="Ellipse_2-20" data-name="Ellipse 2" cx="2" cy="2" r="2" transform="translate(478 104)" fill="#787878"/>
    </g>
    <g transform="translate(-475 -87)">
      <circle id="Ellipse_2-21" data-name="Ellipse 2" cx="2" cy="2" r="2" transform="translate(478 104)" fill="#787878"/>
    </g>
    <g transform="translate(-467 -87)">
      <circle id="Ellipse_2-22" data-name="Ellipse 2" cx="2" cy="2" r="2" transform="translate(478 104)" fill="#787878"/>
    </g>
    <g transform="translate(-459 -87)">
      <circle id="Ellipse_2-23" data-name="Ellipse 2" cx="2" cy="2" r="2" transform="translate(478 104)" fill="#787878"/>
    </g>
    <g transform="translate(-451 -87)">
      <circle id="Ellipse_2-24" data-name="Ellipse 2" cx="2" cy="2" r="2" transform="translate(478 104)" fill="#787878"/>
    </g>
    <g transform="translate(-443 -87)">
      <circle id="Ellipse_2-25" data-name="Ellipse 2" cx="2" cy="2" r="2" transform="translate(478 104)" fill="#787878"/>
    </g>
    <g transform="translate(-435 -87)">
      <circle id="Ellipse_2-26" data-name="Ellipse 2" cx="2" cy="2" r="2" transform="translate(478 104)" fill="#787878"/>
    </g>
    <g transform="translate(-427 -87)">
      <circle id="Ellipse_2-27" data-name="Ellipse 2" cx="2" cy="2" r="2" transform="translate(478 104)" fill="#787878"/>
    </g>
    <g transform="translate(-419 -87)">
      <circle id="Ellipse_2-28" data-name="Ellipse 2" cx="2" cy="2" r="2" transform="translate(478 104)" fill="#787878"/>
    </g>
    <g transform="translate(-411 -87)">
      <circle id="Ellipse_2-29" data-name="Ellipse 2" cx="2" cy="2" r="2" transform="translate(478 104)" fill="#787878"/>
    </g>
    <g transform="translate(-403 -87)">
      <circle id="Ellipse_2-30" data-name="Ellipse 2" cx="2" cy="2" r="2" transform="translate(478 104)" fill="#787878"/>
    </g>
    <g transform="translate(-475 -80)">
      <circle id="Ellipse_2-31" data-name="Ellipse 2" cx="2" cy="2" r="2" transform="translate(478 104)" fill="#787878"/>
    </g>
    <g transform="translate(-467 -80)">
      <circle id="Ellipse_2-32" data-name="Ellipse 2" cx="2" cy="2" r="2" transform="translate(478 104)" fill="#787878"/>
    </g>
    <g transform="translate(-459 -80)">
      <circle id="Ellipse_2-33" data-name="Ellipse 2" cx="2" cy="2" r="2" transform="translate(478 104)" fill="#787878"/>
    </g>
    <g transform="translate(-451 -80)">
      <circle id="Ellipse_2-34" data-name="Ellipse 2" cx="2" cy="2" r="2" transform="translate(478 104)" fill="#787878"/>
    </g>
    <g transform="translate(-443 -80)">
      <circle id="Ellipse_2-35" data-name="Ellipse 2" cx="2" cy="2" r="2" transform="translate(478 104)" fill="#787878"/>
    </g>
    <g transform="translate(-435 -80)">
      <circle id="Ellipse_2-36" data-name="Ellipse 2" cx="2" cy="2" r="2" transform="translate(478 104)" fill="#787878"/>
    </g>
    <g transform="translate(-427 -80)">
      <circle id="Ellipse_2-37" data-name="Ellipse 2" cx="2" cy="2" r="2" transform="translate(478 104)" fill="#787878"/>
    </g>
    <g transform="translate(-419 -80)">
      <circle id="Ellipse_2-38" data-name="Ellipse 2" cx="2" cy="2" r="2" transform="translate(478 104)" fill="#787878"/>
    </g>
    <g transform="translate(-411 -80)">
      <circle id="Ellipse_2-39" data-name="Ellipse 2" cx="2" cy="2" r="2" transform="translate(478 104)" fill="#787878"/>
    </g>
    <g transform="translate(-403 -80)">
      <circle id="Ellipse_2-40" data-name="Ellipse 2" cx="2" cy="2" r="2" transform="translate(478 104)" fill="#787878"/>
    </g>
    <g transform="translate(-475 -73)">
      <circle id="Ellipse_2-41" data-name="Ellipse 2" cx="2" cy="2" r="2" transform="translate(478 104)" fill="#787878"/>
    </g>
    <g transform="translate(-467 -73)">
      <circle id="Ellipse_2-42" data-name="Ellipse 2" cx="2" cy="2" r="2" transform="translate(478 104)" fill="#787878"/>
    </g>
    <g transform="translate(-459 -73)">
      <circle id="Ellipse_2-43" data-name="Ellipse 2" cx="2" cy="2" r="2" transform="translate(478 104)" fill="#787878"/>
    </g>
    <g transform="translate(-451 -73)">
      <circle id="Ellipse_2-44" data-name="Ellipse 2" cx="2" cy="2" r="2" transform="translate(478 104)" fill="#787878"/>
    </g>
    <g transform="translate(-443 -73)">
      <circle id="Ellipse_2-45" data-name="Ellipse 2" cx="2" cy="2" r="2" transform="translate(478 104)" fill="#787878"/>
    </g>
    <g transform="translate(-435 -73)">
      <circle id="Ellipse_2-46" data-name="Ellipse 2" cx="2" cy="2" r="2" transform="translate(478 104)" fill="#787878"/>
    </g>
    <g transform="translate(-427 -73)">
      <circle id="Ellipse_2-47" data-name="Ellipse 2" cx="2" cy="2" r="2" transform="translate(478 104)" fill="#787878"/>
    </g>
    <g transform="translate(-419 -73)">
      <circle id="Ellipse_2-48" data-name="Ellipse 2" cx="2" cy="2" r="2" transform="translate(478 104)" fill="#787878"/>
    </g>
    <g transform="translate(-411 -73)">
      <circle id="Ellipse_2-49" data-name="Ellipse 2" cx="2" cy="2" r="2" transform="translate(478 104)" fill="#787878"/>
    </g>
    <g transform="translate(-403 -73)">
      <circle id="Ellipse_2-50" data-name="Ellipse 2" cx="2" cy="2" r="2" transform="translate(478 104)" fill="#787878"/>
    </g>
  </g>
</svg>
